
<svg xmlns="http://www.w3.org/2000/svg" aria-hidden="true" style="position:absolute;width:0;height:0;overflow:hidden">
  <defs>
    <symbol id="Logo-5" viewBox="0 0 59 32">
      <path  d="M30.588 15.682a1.685 1.685 0 0 1-.346-1.138v-1.65c0-.506.115-.89.344-1.153s.624-.394 1.183-.393c.525 0 .898.112 1.119.336.24.286.358.635.331.987v.388h-.94v-.393a2.056 2.056 0 0 0-.027-.384.373.373 0 0 0-.134-.228.541.541 0 0 0-.34-.089.577.577 0 0 0-.358.094.443.443 0 0 0-.156.252 1.93 1.93 0 0 0-.037.408v2.003c-.015.193.027.387.121.562.047.06.112.107.188.136s.16.041.242.032c.12.009.24-.024.333-.091a.4.4 0 0 0 .14-.243 2.16 2.16 0 0 0 .029-.401v-.406h.94v.371c.026.367-.088.732-.325 1.038-.216.245-.584.368-1.125.368s-.949-.131-1.181-.403zM34.501 15.699c-.237-.257-.356-.631-.356-1.127v-1.736c0-.49.119-.861.356-1.113s.634-.377 1.191-.376c.553 0 .947.125 1.185.376.237.252.358.623.358 1.113v1.736c0 .49-.121.866-.362 1.125s-.634.388-1.181.388-.951-.131-1.191-.386zm1.628-.417a.968.968 0 0 0 .113-.514v-2.125a.943.943 0 0 0-.111-.504c-.048-.061-.114-.109-.192-.138s-.164-.04-.248-.03c-.084-.01-.17 0-.248.03s-.145.077-.193.138a.922.922 0 0 0-.113.504v2.136a.95.95 0 0 0 .113.514c.055.054.122.098.198.127a.68.68 0 0 0 .484 0 .59.59 0 0 0 .198-.127v-.01zM38.364 11.398h1.012l.761 3.203.778-3.203h.984l.099 4.623h-.728l-.078-3.213-.751 3.213h-.584l-.778-3.225-.072 3.225h-.735l.091-4.623zM43.133 11.398h1.576c.908 0 1.362.438 1.362 1.313 0 .838-.478 1.257-1.434 1.256H44.1v2.055h-.973l.006-4.623zm1.346 1.976c.096.011.194.003.286-.022s.177-.067.249-.124a.744.744 0 0 0 .14-.522 1.457 1.457 0 0 0-.047-.42c-.014-.046-.038-.089-.072-.127s-.075-.069-.123-.093a1.012 1.012 0 0 0-.434-.074h-.377v1.382h.377zM47.474 11.398h1.045l1.072 4.623h-.907l-.212-1.066h-.932l-.218 1.066h-.92l1.072-4.623zm.893 3.021-.364-1.941-.364 1.941h.728zM50.456 11.398h.681l1.304 2.637v-2.637h.807v4.623H52.6l-1.311-2.753v2.753h-.835l.002-4.623zM55.139 14.258l-1.084-2.854h.912l.661 1.833.621-1.833h.893l-1.07 2.854v1.763h-.934v-1.763zM32.09 18.042v.242h-.794v1.879h-.333v-1.879h-.798v-.242h1.924zM34.578 20.163h-.257a.119.119 0 0 1-.072-.02.113.113 0 0 1-.043-.049l-.23-.504h-1.101l-.23.504a.147.147 0 0 1-.035.057.119.119 0 0 1-.072.02h-.257l.973-2.12h.339l.984 2.112zm-1.61-.788h.918l-.389-.863a1.447 1.447 0 0 1-.072-.2l-.037.113-.035.089-.385.861zM36.256 19.954c.061.003.122.003.183 0 .053-.005.105-.013.156-.025.048-.01.094-.023.14-.039.043-.015.086-.034.13-.052v-.477h-.389c-.01 0-.019-.001-.028-.004a.07.07 0 0 1-.039-.03.038.038 0 0 1-.005-.021v-.163h.755v.813a1.497 1.497 0 0 1-.654.217 2.687 2.687 0 0 1-.284.013 1.497 1.497 0 0 1-.49-.079 1.178 1.178 0 0 1-.389-.222 1.028 1.028 0 0 1-.251-.336 1.07 1.07 0 0 1-.09-.44 1.099 1.099 0 0 1 .088-.443.97.97 0 0 1 .251-.336 1.19 1.19 0 0 1 .389-.22c.167-.054.343-.081.521-.079.091 0 .181.006.27.018a1.273 1.273 0 0 1 .595.249l-.093.131c-.007.012-.018.022-.032.029s-.029.011-.044.011a.123.123 0 0 1-.06-.017 1.127 1.127 0 0 1-.095-.05.947.947 0 0 0-.13-.057 1.208 1.208 0 0 0-.426-.065 1.165 1.165 0 0 0-.376.059.835.835 0 0 0-.286.168.734.734 0 0 0-.181.264.99.99 0 0 0 0 .707c.043.1.109.191.195.267.08.073.177.13.284.168.124.037.255.051.385.042zM39.357 19.921h1.062v.242h-1.387v-2.12h.333l-.008 1.879zM41.524 20.162h-.333v-2.12h.333v2.12zM42.761 18.052c.02.01.037.023.051.039l1.422 1.598a.482.482 0 0 1 0-.076V18.033h.29v2.129h-.167a.146.146 0 0 1-.072-.012.211.211 0 0 1-.053-.04l-1.42-1.597v1.649h-.278v-2.12h.173a.14.14 0 0 1 .054.01zM46.974 18.042v.233h-1.179v.7h.955v.225h-.955v.724h1.179v.233h-1.521v-2.115h1.521zM12.112 4.948l14.772 3.619V21.25l-14.772-3.618V4.947zm-.948-1.081v14.382l16.666 4.084V7.953L11.164 3.867z"/>
      <path  d="M20.096 29.01 3.429 24.922V10.541l16.667 4.086v14.382z" />
      <path  d="m11.44 4.785 14.58 3.574-6.2 5.352-14.582-3.576 6.202-5.35zm-.276-.918-7.735 6.675 16.667 4.086 7.733-6.675-16.666-4.086zM21.034 28.201l6.796-5.866-6.796-1.667V28.2z" />
    </symbol>
    <symbol id="Logo-4" viewBox="0 0 59 32">
      <path  d="M15.31 25.356c.14.156.215.352.211.553.007.131-.018.262-.075.383s-.143.229-.252.316c-.273.185-.61.276-.951.255h-1.671v-3.504h1.637c.323-.019.644.063.907.233.106.08.19.18.245.294s.08.238.073.361a.76.76 0 0 1-.19.536.91.91 0 0 1-.498.274.975.975 0 0 1 .565.3zm-1.961-.529h.7a.719.719 0 0 0 .445-.116c.053-.043.093-.096.12-.155s.037-.123.031-.187a.397.397 0 0 0-.148-.342.733.733 0 0 0-.458-.118h-.688v.919zm1.213 1.344c.056-.044.1-.099.129-.161s.041-.129.036-.195c.004-.068-.009-.135-.038-.198s-.074-.118-.131-.162a.786.786 0 0 0-.475-.127h-.734v.964h.743a.794.794 0 0 0 .47-.122zM18.656 26.862l-.911-1.369h-.342v1.369h-.783v-3.504h1.483a1.57 1.57 0 0 1 1.032.298c.207.19.332.441.353.707s-.066.529-.242.743a1.245 1.245 0 0 1-.707.356l.97 1.4h-.852zm-1.253-1.847h.641c.445 0 .668-.177.668-.531.005-.072-.008-.145-.036-.212s-.072-.13-.128-.181a.75.75 0 0 0-.504-.142h-.648l.008 1.067zM22.939 26.157h-1.561l-.276.705h-.821l1.434-3.465h.888l1.428 3.465h-.822l-.27-.705zm-.21-.53-.57-1.479-.57 1.479h1.141zM28.299 26.863h-.778l-1.744-2.383v2.383h-.776v-3.504h.776l1.744 2.397v-2.397h.778v3.504zM32.737 26.024c-.161.265-.406.48-.704.618-.339.154-.714.23-1.093.221h-1.384v-3.504h1.384c.378-.009.754.065 1.093.216.298.135.543.348.704.611.16.285.243.6.243.919s-.083.634-.243.919zm-.89-.084c.222-.233.344-.529.344-.836s-.122-.603-.344-.836a1.448 1.448 0 0 0-.974-.298h-.54v2.268h.54c.355.02.705-.087.974-.298zM23.425 3.867s10.038 3.412 9.825 8.349v8.351s-10.031-3.413-9.821-8.351l-.004-8.349zM42.194 18.611c1.896-1.175 4.089-1.902 6.378-2.116v-2.614c-2.638.915-4.875 2.575-6.378 4.73z" />
      <path  d="M41.055 19.399c1.552-2.813 4.242-4.983 7.517-6.065V5.802s-14.296 4.86-13.993 11.891v11.889s.637-.217 1.639-.625c0-.38 0-.764.046-1.149.296-3.264 2.02-6.289 4.792-8.409z" />
      <path  d="M39.695 23.815c.075-.825.243-1.64.5-2.434-1.726 1.831-2.772 4.103-2.989 6.497-.021.226-.032.452-.038.685a43.581 43.581 0 0 0 2.75-1.304 11.103 11.103 0 0 1-.222-3.443zM40.264 23.858a10.594 10.594 0 0 0 .177 3.117c3.906-2.104 8.294-5.355 8.125-9.284v-.342c-2.791.281-5.401 1.379-7.431 3.126a10.75 10.75 0 0 0-.871 3.383z" />
    </symbol>
    <symbol id="Logo-3" viewBox="0 0 59 32">
      <path  d="M13.759 12.296h-.002c-1.363 0-2.468.996-2.468 2.225v.002c0 1.229 1.105 2.225 2.468 2.225h.002c1.363 0 2.468-.996 2.468-2.225v-.002c0-1.229-1.105-2.225-2.468-2.225zM31.978 11.585c-.004-1.707-.758-3.343-2.096-4.551s-3.153-1.887-5.047-1.891c-1.894.003-3.709.683-5.049 1.89s-2.094 2.844-2.098 4.552v9.414s14.288-1.435 14.289-9.412v-.001zM6.286 24.088c.003 1.188.528 2.326 1.46 3.166s2.194 1.314 3.511 1.317c1.317-.003 2.579-.477 3.511-1.317s1.456-1.978 1.46-3.165v-6.55s-9.942.999-9.942 6.549zm4.971 1.174c-.258 0-.509-.069-.723-.198s-.381-.312-.479-.527-.124-.45-.074-.678c.05-.228.174-.437.356-.601s.414-.276.666-.321c.252-.045.514-.022.752.067s.441.239.584.432a1.093 1.093 0 0 1 .121 1.103 1.164 1.164 0 0 1-.282.382c-.121.109-.265.196-.423.256s-.328.09-.499.09v-.004zM20.348 23.151v2.438h-.502v-2.438h.502zm.971 1.042v.392h-1.108v-.392h1.108zm.117-1.042v.393h-1.225v-.393h1.225zm2.294 1.162v.116c0 .185-.025.352-.075.499s-.121.273-.213.377a.919.919 0 0 1-.328.236 1.039 1.039 0 0 1-.42.082c-.153 0-.293-.027-.42-.082a.946.946 0 0 1-.328-.236 1.09 1.09 0 0 1-.216-.377 1.548 1.548 0 0 1-.075-.499v-.116c0-.186.025-.353.075-.499.05-.147.121-.273.213-.377a.938.938 0 0 1 .328-.238c.127-.055.267-.082.42-.082.154 0 .294.027.42.082a.912.912 0 0 1 .328.238c.093.104.164.229.214.377.051.146.077.312.077.499zm-.508.116v-.119c0-.13-.012-.243-.035-.342s-.058-.181-.104-.248a.46.46 0 0 0-.393-.203.458.458 0 0 0-.392.203c-.045.067-.079.15-.102.248s-.035.212-.035.342v.119c0 .128.012.242.035.341a.744.744 0 0 0 .104.249c.046.067.102.118.167.152s.141.052.226.052a.454.454 0 0 0 .392-.204.764.764 0 0 0 .102-.249c.023-.099.035-.213.035-.341zm2.138.522a.326.326 0 0 0-.02-.117.221.221 0 0 0-.07-.097c-.035-.03-.083-.06-.146-.089s-.143-.059-.243-.09a3.168 3.168 0 0 1-.315-.121 1.28 1.28 0 0 1-.261-.156.688.688 0 0 1-.177-.209.58.58 0 0 1-.064-.276c0-.102.022-.194.067-.276a.63.63 0 0 1 .188-.214.88.88 0 0 1 .285-.139 1.3 1.3 0 0 1 .363-.049c.18 0 .337.032.47.097s.238.154.311.266a.683.683 0 0 1 .112.387h-.499a.382.382 0 0 0-.045-.188.304.304 0 0 0-.134-.129.48.48 0 0 0-.224-.047.518.518 0 0 0-.218.04.297.297 0 0 0-.131.105.262.262 0 0 0-.044.147c0 .041.01.079.03.112.021.034.052.065.094.094s.092.056.152.082c.06.026.13.051.209.075.133.04.249.085.35.136.102.05.186.107.254.169a.624.624 0 0 1 .206.483c0 .106-.021.201-.062.285s-.101.155-.179.213c-.078.058-.171.102-.28.132s-.229.045-.363.045a1.4 1.4 0 0 1-.357-.047 1.072 1.072 0 0 1-.32-.146c-.095-.065-.171-.147-.228-.248s-.085-.219-.085-.357h.504c0 .076.012.14.035.192s.056.095.099.127a.426.426 0 0 0 .154.07c.06.015.126.022.198.022a.527.527 0 0 0 .214-.037.272.272 0 0 0 .126-.102.268.268 0 0 0 .042-.147zm1.934-1.8v2.438h-.501v-2.438h.501zm.75 0v.393h-1.989v-.393h1.989zm1.922 2.046v.392h-1.297v-.392h1.297zm-1.134-2.046v2.438h-.502v-2.438h.502zm.965.993v.382h-1.128v-.382h1.128zm.167-.993v.393h-1.296v-.393h1.296zm.295 0h.909c.186 0 .346.028.48.084.135.056.239.138.311.248s.109.244.109.403a.773.773 0 0 1-.067.337.63.63 0 0 1-.186.233.965.965 0 0 1-.28.147l-.159.084h-.79l-.003-.392h.588c.088 0 .161-.016.219-.047s.102-.075.131-.131a.403.403 0 0 0 .045-.194c0-.078-.015-.146-.044-.203s-.073-.1-.132-.131-.133-.045-.223-.045h-.407v2.044h-.502V23.15zm1.362 2.438-.556-1.086.531-.003.562 1.066v.023h-.537zm2.637-.869h-.621v-.392h.621a.51.51 0 0 0 .234-.047c.06-.032.104-.077.132-.134s.042-.121.042-.192c0-.073-.014-.14-.042-.203s-.072-.113-.132-.151-.138-.057-.234-.057h-.447v2.044h-.502V23.15h.949c.191 0 .354.035.49.104a.742.742 0 0 1 .424.696c0 .157-.036.294-.109.408s-.177.204-.315.266c-.136.062-.3.094-.49.094zm2.896.477v.392h-1.297v-.392h1.297zm-1.133-2.046v2.438h-.502v-2.438h.502zm.964.993v.382h-1.128v-.382h1.128zm.168-.993v.393h-1.296v-.393h1.296zm1.418 0v2.438h-.501v-2.438h.501zm.75 0v.393h-1.989v-.393h1.989zm1.921 2.046v.392h-1.297v-.392h1.297zm-1.133-2.046v2.438h-.502v-2.438h.502zm.964.993v.382h-1.128v-.382h1.128zm.168-.993v.393h-1.296v-.393h1.296zm.294 0h.909c.186 0 .347.028.48.084.135.056.239.138.311.248s.109.244.109.403a.773.773 0 0 1-.067.337.63.63 0 0 1-.186.233.965.965 0 0 1-.28.147l-.159.084h-.79l-.003-.392h.588c.088 0 .161-.016.219-.047s.102-.075.131-.131a.403.403 0 0 0 .045-.194c0-.078-.014-.146-.044-.203s-.073-.1-.132-.131a.489.489 0 0 0-.223-.045h-.407v2.044h-.502V23.15zm1.363 2.438-.556-1.086.531-.003.563 1.066v.023h-.537zm2.103-.638a.326.326 0 0 0-.02-.117.221.221 0 0 0-.07-.097c-.035-.03-.083-.06-.146-.089s-.143-.059-.243-.09a3.076 3.076 0 0 1-.315-.121 1.28 1.28 0 0 1-.261-.156.58.58 0 0 1-.242-.485c0-.102.022-.194.067-.276a.63.63 0 0 1 .188-.214.88.88 0 0 1 .285-.139c.111-.032.232-.049.363-.049.18 0 .337.032.47.097s.238.154.311.266a.683.683 0 0 1 .112.387h-.499a.382.382 0 0 0-.045-.188.304.304 0 0 0-.134-.129.48.48 0 0 0-.224-.047.518.518 0 0 0-.218.04.297.297 0 0 0-.131.105.262.262 0 0 0-.044.147c0 .041.01.079.03.112.021.034.052.065.094.094s.092.056.152.082c.06.026.13.051.209.075.133.04.249.085.35.136.102.05.186.107.254.169a.624.624 0 0 1 .206.483c0 .106-.021.201-.062.285s-.101.155-.179.213c-.078.058-.171.102-.28.132s-.229.045-.363.045a1.4 1.4 0 0 1-.357-.047 1.072 1.072 0 0 1-.32-.146c-.095-.065-.171-.147-.228-.248s-.085-.219-.085-.357h.504c0 .076.012.14.035.192s.056.095.099.127a.426.426 0 0 0 .154.07c.06.015.126.022.198.022a.527.527 0 0 0 .214-.037.272.272 0 0 0 .126-.102.268.268 0 0 0 .042-.147z" />
    </symbol>
    <symbol id="twitter" viewBox="0 0 32 32">
      <path  d="M32 6.078c-1.19.522-2.458.868-3.78 1.036a6.523 6.523 0 0 0 2.886-3.626 13.11 13.11 0 0 1-4.16 1.588A6.574 6.574 0 0 0 22.154 3c-3.632 0-6.556 2.948-6.556 6.562 0 .52.044 1.02.152 1.496-5.454-.266-10.28-2.88-13.522-6.862a6.605 6.605 0 0 0-.898 3.316 6.57 6.57 0 0 0 2.914 5.452 6.479 6.479 0 0 1-2.964-.808v.072c0 3.188 2.274 5.836 5.256 6.446a6.548 6.548 0 0 1-1.72.216 5.8 5.8 0 0 1-1.242-.112c.85 2.598 3.262 4.508 6.13 4.57a13.182 13.182 0 0 1-8.134 2.798c-.538 0-1.054-.024-1.57-.09A18.469 18.469 0 0 0 10.064 29c12.072 0 18.672-10 18.672-18.668 0-.29-.01-.57-.024-.848A13.087 13.087 0 0 0 32 6.078z" />
    </symbol>
    <symbol id="facebook-1" viewBox="0 0 32 32">
      <path  d="M21.329 5.313h2.921V.225C23.746.156 22.013 0 19.994 0c-4.212 0-7.097 2.649-7.097 7.519V12H8.249v5.688h4.648V32h5.699V17.689h4.46l.708-5.688h-5.169V8.082c.001-1.644.444-2.769 2.735-2.769z" />
    </symbol>
    <symbol id="linkedin" viewBox="0 0 32 32">
      <path  d="M31.992 32v-.001H32V20.263c0-5.741-1.236-10.164-7.948-10.164-3.227 0-5.392 1.771-6.276 3.449h-.093v-2.913h-6.364v21.364h6.627V21.42c0-2.785.528-5.479 3.977-5.479 3.399 0 3.449 3.179 3.449 5.657v10.401h6.62zM.528 10.636h6.635V32H.528V10.636zM3.843 0C1.722 0 0 1.721 0 3.843s1.721 3.879 3.843 3.879c2.121 0 3.843-1.757 3.843-3.879A3.846 3.846 0 0 0 3.843 0z" />
    </symbol>
  </defs>
</svg>